<?xml version="1.0" standalone="no"?>
<!DOCTYPE svg PUBLIC "-//W3C//DTD SVG 20010904//EN"
 "http://www.w3.org/TR/2001/REC-SVG-20010904/DTD/svg10.dtd">
<svg version="1.0" xmlns="http://www.w3.org/2000/svg"
 width="500.000000pt" height="500.000000pt" viewBox="0 0 500.000000 500.000000"
 preserveAspectRatio="xMidYMid meet">
<metadata>
Created by potrace 1.14, written by Peter Selinger 2001-2017
</metadata>
<g transform="translate(0.000000,500.000000) scale(0.100000,-0.100000)"
fill="#000000" stroke="none">
<path d="M2260 4701 c-77 -24 -138 -62 -208 -129 -52 -49 -981 -1012 -1262
-1308 -106 -110 -157 -199 -184 -314 -23 -94 -23 -1859 -1 -1962 38 -181 163
-340 330 -424 136 -68 49 -64 1453 -64 1232 0 1274 1 1310 19 72 37 104 91
103 174 0 64 -34 122 -91 155 l-45 27 -1265 5 -1265 5 -37 23 c-53 33 -104 96
-117 145 -9 31 -11 282 -9 932 3 831 4 892 21 926 17 35 1292 1362 1351 1407
20 14 44 22 71 22 27 0 51 -8 71 -22 16 -13 350 -354 742 -760 775 -802 747
-777 847 -766 129 15 205 162 143 276 -18 32 -1055 1117 -1414 1478 -129 130
-227 174 -389 173 -67 0 -118 -6 -155 -18z"/>
<path d="M1839 2505 c-49 -27 -50 -38 -47 -539 l3 -468 28 -24 c36 -31 78 -31
114 0 l28 24 3 165 3 165 167 4 c151 3 171 5 210 26 64 34 120 96 154 169 27
56 31 77 31 148 0 71 -4 92 -31 148 -35 75 -92 136 -160 169 -44 22 -60 23
-262 25 -173 2 -220 0 -241 -12z m452 -192 c78 -66 80 -200 4 -275 l-28 -28
-148 0 -149 0 0 165 0 165 144 0 c142 0 145 0 177 -27z"/>
<path d="M2764 2510 c-55 -22 -54 -16 -54 -528 l0 -474 29 -29 c22 -21 39 -29
66 -29 27 0 44 8 66 29 l29 29 0 196 0 196 184 0 c181 0 183 0 210 25 35 32
36 86 1 120 -24 25 -26 25 -210 25 l-185 0 0 134 0 135 221 3 221 3 24 28 c31
36 31 78 0 114 l-24 28 -279 2 c-153 1 -288 -2 -299 -7z"/>
<path d="M3624 2510 c-55 -22 -54 -16 -54 -523 0 -302 4 -475 10 -488 14 -25
62 -49 98 -49 18 0 38 10 53 26 23 25 24 32 27 196 l3 170 172 -4 c227 -4 238
-11 252 -163 10 -124 68 -209 149 -222 52 -8 84 4 101 38 20 37 13 63 -30 110
-27 30 -34 48 -40 100 -10 96 -25 136 -66 183 l-38 43 40 39 c22 21 53 66 69
98 76 151 7 347 -148 423 l-57 28 -260 2 c-143 1 -270 -2 -281 -7z m521 -192
c72 -56 74 -214 4 -289 l-27 -29 -181 0 -181 0 0 170 0 170 179 0 c168 0 180
-1 206 -22z"/>
</g>
</svg>
